# xmcd
#
# Track frame offsets:
#	150
#	32982
#	61830
#	97416
#	132225
#	169890
#	208953
#	224868
#	253755
#	283836
#
# Disc length: 4086 seconds
#
# Revision: 1
# Processed by: cddbd v1.4PL0 Copyright (c) Steve Scherf et al.
# Submitted via: CDmax 2.0
#
DISCID=ae0ff40a
DTITLE=Hot Tuna - Jorma Kaukonen and Jack Casady w/Barry Mitterhoff - Live at T
DTITLE=he Tabernacle, Mt. Tabor, NJ - 11.28.03 - d1
DYEAR=2003
DGENRE=Blues
TTITLE0=Search My Heart
TTITLE1=I'll Be All Right Someday
TTITLE2=Re-Enlistment Blues
TTITLE3=Death Don't Have No Mercy
TTITLE4=Serpent Of Dreams
TTITLE5=Heart Temporary
TTITLE6=I'll Let You Know Before I Leave
TTITLE7=Prohibition Blues
TTITLE8=That'll Never Happen No More
TTITLE9=Waiting For A Train
EXTD=Hot Tuna\nJorma Kaukonen and Jack Casady w/Barry Mitterhoff\nNovember 28
EXTD=, 2003\nThe Tabernacle\nMount Tabor, NJ\n\nSource: 4th DFC Schoeps MK4s>
EXTD=Reutelhuber PA/PS>DA-P1 @ 44.1khz\nTransfer: Panasonic SV-3700>Lynx ONE>
EXTD=Nuendo @ 44.1khz/24 bits\nMastering: Waves Q-10 Equalizer, Waves S1 Ster
EXTD=eoimager and Waves L2 Ultramaximizer\n           in that order rendered t
EXTD=o 16 bits.\n\nRecording and mastering by David Avery (davery at digizip.
EXTD=com]\n\n\nSet 1:\nSearch My Heart\nI'll Be All Right Someday\nRe-Enlistm
EXTD=ent Blues\nDeath Don't Have No Mercy\nSerpent Of Dreams\nHeart Temporary
EXTD=\nI'll Let You Know Before I Leave\nProhibition Blues\n\nSet 2:\nThat'l
EXTD=l Never Happen No More\nWaiting For A Train\nBeen So Long\nI See The Lig
EXTD=ht\nDay To Day Out The Window Blues\nLiving In The Moment\nGood Shepherd
EXTD=\nGenesis\nI Am The Light Of This World\nA Life Well Lived\nSan Francisc
EXTD=o Bay Blues\n\nEncore:\nWater Song
EXTT0=
EXTT1=
EXTT2=
EXTT3=
EXTT4=
EXTT5=
EXTT6=
EXTT7=
EXTT8=
EXTT9=
PLAYORDER=
